<svg width="196" height="40" viewBox="0 0 196 40" fill="none" xmlns="http://www.w3.org/2000/svg">
<path d="M34.1422 5.85781C30.3647 2.08031 25.3422 0 20 0C14.6578 0 9.63531 2.08031 5.85781 5.85781C2.08031 9.63531 0 14.6578 0 20C0 25.3422 2.08039 30.3646 5.85781 34.1422C9.63523 37.9198 14.6578 40 20 40C25.3422 40 30.3647 37.9197 34.1422 34.1422C37.9197 30.3647 40 25.3422 40 20C40 14.6578 37.9196 9.63539 34.1422 5.85781Z" fill="#1985A1"/>
<g clip-path="url(#clip0)">
<path d="M20.5714 8V33.1429" stroke="white" stroke-width="2" stroke-linecap="round" stroke-linejoin="round"/>
<path d="M26.2857 12.5714H17.7143C16.6534 12.5714 15.636 12.9929 14.8859 13.743C14.1357 14.4931 13.7143 15.5106 13.7143 16.5714C13.7143 17.6323 14.1357 18.6497 14.8859 19.3999C15.636 20.15 16.6534 20.5714 17.7143 20.5714H23.4286C24.4894 20.5714 25.5069 20.9929 26.257 21.743C27.0072 22.4932 27.4286 23.5106 27.4286 24.5714C27.4286 25.6323 27.0072 26.6497 26.257 27.3999C25.5069 28.15 24.4894 28.5714 23.4286 28.5714H13.7143" stroke="white" stroke-width="2" stroke-linecap="round" stroke-linejoin="round"/>
</g>
<path d="M67.375 11.248V13.96H60.391V18.256H65.743V20.92H60.391V28H57.031V11.248H67.375ZM73.1176 10.24V28H69.7576V10.24H73.1176ZM82.3413 28.216C81.0613 28.216 79.9093 27.936 78.8853 27.376C77.8613 26.8 77.0533 25.992 76.4613 24.952C75.8853 23.912 75.5973 22.712 75.5973 21.352C75.5973 19.992 75.8933 18.792 76.4853 17.752C77.0933 16.712 77.9173 15.912 78.9573 15.352C79.9973 14.776 81.1573 14.488 82.4373 14.488C83.7173 14.488 84.8773 14.776 85.9173 15.352C86.9573 15.912 87.7733 16.712 88.3653 17.752C88.9733 18.792 89.2773 19.992 89.2773 21.352C89.2773 22.712 88.9653 23.912 88.3412 24.952C87.7333 25.992 86.9013 26.8 85.8453 27.376C84.8053 27.936 83.6373 28.216 82.3413 28.216ZM82.3413 25.288C82.9493 25.288 83.5173 25.144 84.0453 24.856C84.5893 24.552 85.0213 24.104 85.3413 23.512C85.6613 22.92 85.8213 22.2 85.8213 21.352C85.8213 20.088 85.4853 19.12 84.8133 18.448C84.1573 17.76 83.3493 17.416 82.3893 17.416C81.4293 17.416 80.6213 17.76 79.9653 18.448C79.3253 19.12 79.0053 20.088 79.0053 21.352C79.0053 22.616 79.3173 23.592 79.9413 24.28C80.5813 24.952 81.3813 25.288 82.3413 25.288ZM110.174 14.704L106.286 28H102.662L100.238 18.712L97.8139 28H94.1659L90.2539 14.704H93.6619L96.0139 24.832L98.5579 14.704H102.11L104.606 24.808L106.958 14.704H110.174Z" fill="#1985A1"/>
<path d="M128.504 14.512C130.136 14.512 131.448 15.016 132.44 16.024C133.448 17.016 133.952 18.408 133.952 20.2V28H130.592V20.656C130.592 19.616 130.328 18.824 129.8 18.28C129.272 17.72 128.552 17.44 127.64 17.44C126.728 17.44 126 17.72 125.456 18.28C124.928 18.824 124.664 19.616 124.664 20.656V28H121.304V20.656C121.304 19.616 121.04 18.824 120.512 18.28C119.984 17.72 119.264 17.44 118.352 17.44C117.424 17.44 116.688 17.72 116.144 18.28C115.616 18.824 115.352 19.616 115.352 20.656V28H111.992V14.704H115.352V16.312C115.784 15.752 116.336 15.312 117.008 14.992C117.696 14.672 118.448 14.512 119.264 14.512C120.304 14.512 121.232 14.736 122.048 15.184C122.864 15.616 123.496 16.24 123.944 17.056C124.376 16.288 125 15.672 125.816 15.208C126.648 14.744 127.544 14.512 128.504 14.512ZM143.044 28.216C141.764 28.216 140.612 27.936 139.588 27.376C138.564 26.8 137.756 25.992 137.164 24.952C136.588 23.912 136.3 22.712 136.3 21.352C136.3 19.992 136.596 18.792 137.188 17.752C137.796 16.712 138.62 15.912 139.66 15.352C140.7 14.776 141.86 14.488 143.14 14.488C144.42 14.488 145.58 14.776 146.62 15.352C147.66 15.912 148.476 16.712 149.068 17.752C149.676 18.792 149.98 19.992 149.98 21.352C149.98 22.712 149.668 23.912 149.044 24.952C148.436 25.992 147.604 26.8 146.548 27.376C145.508 27.936 144.34 28.216 143.044 28.216ZM143.044 25.288C143.652 25.288 144.22 25.144 144.748 24.856C145.292 24.552 145.724 24.104 146.044 23.512C146.364 22.92 146.524 22.2 146.524 21.352C146.524 20.088 146.188 19.12 145.516 18.448C144.86 17.76 144.052 17.416 143.092 17.416C142.132 17.416 141.324 17.76 140.668 18.448C140.028 19.12 139.708 20.088 139.708 21.352C139.708 22.616 140.02 23.592 140.644 24.28C141.284 24.952 142.084 25.288 143.044 25.288ZM159.813 14.512C161.397 14.512 162.677 15.016 163.653 16.024C164.629 17.016 165.117 18.408 165.117 20.2V28H161.757V20.656C161.757 19.6 161.493 18.792 160.965 18.232C160.437 17.656 159.717 17.368 158.805 17.368C157.877 17.368 157.141 17.656 156.597 18.232C156.069 18.792 155.805 19.6 155.805 20.656V28H152.445V14.704H155.805V16.36C156.253 15.784 156.821 15.336 157.509 15.016C158.213 14.68 158.981 14.512 159.813 14.512ZM180.672 21.064C180.672 21.544 180.64 21.976 180.576 22.36H170.856C170.936 23.32 171.272 24.072 171.864 24.616C172.456 25.16 173.184 25.432 174.048 25.432C175.296 25.432 176.184 24.896 176.712 23.824H180.336C179.952 25.104 179.216 26.16 178.128 26.992C177.04 27.808 175.704 28.216 174.12 28.216C172.84 28.216 171.688 27.936 170.664 27.376C169.656 26.8 168.864 25.992 168.288 24.952C167.728 23.912 167.448 22.712 167.448 21.352C167.448 19.976 167.728 18.768 168.288 17.728C168.848 16.688 169.632 15.888 170.64 15.328C171.648 14.768 172.808 14.488 174.12 14.488C175.384 14.488 176.512 14.76 177.504 15.304C178.512 15.848 179.288 16.624 179.832 17.632C180.392 18.624 180.672 19.768 180.672 21.064ZM177.192 20.104C177.176 19.24 176.864 18.552 176.256 18.04C175.648 17.512 174.904 17.248 174.024 17.248C173.192 17.248 172.488 17.504 171.912 18.016C171.352 18.512 171.008 19.208 170.88 20.104H177.192ZM195.845 14.704L187.613 34.288H184.037L186.917 27.664L181.589 14.704H185.357L188.789 23.992L192.269 14.704H195.845Z" fill="white"/>
<defs>
<clipPath id="clip0">
<rect width="27.4286" height="27.4286" fill="white" transform="translate(6.85715 6.85714)"/>
</clipPath>
</defs>
</svg>
